# AST/ASF file generated using VICON BodyLanguage
# -----------------------------------------------
:version 1.10
:name VICON
:units
  mass 1.0
  length 0.45
  angle deg
:documentation
   .ast/.asf automatically generated from VICON data using
   VICON BodyBuilder and BodyLanguage model FoxedUp or BRILLIANT.MOD
:root
   order TX TY TZ RX RY RZ
   axis XYZ
   position 0 0 0  
   orientation 0 0 0 
:bonedata
  begin
     id 1 
     name lhipjoint
     direction 0.678564 -0.644259 0.352817 
     length 2.99514 
     axis 0 0 0  XYZ
  end
  begin
     id 2 
     name lfemur
     direction 0.34202 -0.939693 0  
     length 7.29983  
     axis 0 0 20  XYZ
    dof rx ry rz
    limits (-160.0 20.0)
           (-70.0 70.0)
           (-60.0 70.0)
  end
  begin
     id 3 
     name ltibia
     direction 0.34202 -0.939693 0   
     length 8.59502   
     axis 0 0 20   XYZ
    dof rx
    limits (-10.0 170.0)
  end
  begin
     id 4 
     name lfoot
     direction 0.256607 -0.705022 0.661133   
     length 2.92136   
     axis -90 7.62852e-016 20   XYZ
    dof rx rz
    limits (-45.0 90.0)
           (-70.0 20.0)
  end
  begin
     id 5 
     name ltoes
     direction 1.53673e-011 -4.22167e-011 1   
     length 1.31421   
     axis -90 7.62852e-016 20   XYZ
    dof rx
    limits (-90.0 20.0)
  end
  begin
     id 6 
     name rhipjoint
     direction -0.664671 -0.655307 0.358867   
     length 2.94464  
     axis 0 0 0  XYZ 
  end
  begin
     id 7 
     name rfemur
     direction -0.34202 -0.939693 0   
     length 7.1902   
     axis 0 0 -20   XYZ
    dof rx ry rz
    limits (-160.0 20.0)
           (-70.0 70.0)
           (-70.0 60.0)
  end
  begin
     id 8 
     name rtibia
     direction -0.342306 -0.939589 0   
     length 7.92304   
     axis 0 0 -20   XYZ
    dof rx
    limits (-10.0 170.0)
 end
 begin
     id 9 
     name rfoot
     direction -0.135083 -0.371136 0.9187   
     length 2.14777  
     axis -90 -7.62852e-016 -20   XYZ
    dof rx rz
    limits (-45.0 90.0)
           (-20.0 70.0)
  end
  begin
     id 10 
     name rtoes
     direction -1.53535e-011 -4.21537e-011 1   
     length 1.05997   
     axis -90 -7.62852e-016 -20   XYZ
    dof rx
    limits (-90.0 20.0)
  end
  begin
     id 11 
     name lowerback
     direction -0.0195507 0.995133 0.0965771   
     length 2.09792   
     axis 0 0 0   XYZ
    dof rx ry rz
    limits (-20.0 45.0)
           (-30.0 30.0)
           (-30.0 30.0)
  end
  begin
     id 12 
     name upperback
     direction 0.00551419 0.999637 0.0263729   
     length 2.10514   
     axis 0 0 0   XYZ
    dof rx ry rz
    limits (-20.0 45.0)
           (-30.0 30.0)
           (-30.0 30.0)
  end
  begin
     id 13 
     name thorax
     direction 0.0138853 0.999728 -0.0187549   
     length 2.12411   
     axis 0 0 0   XYZ
    dof rx ry rz
    limits (-20.0 45.0)
           (-30.0 30.0)
           (-30.0 30.0)
  end
  begin
     id 14 
     name lowerneck
     direction 0.00575564 0.995441 0.0952053   
     length 2.98955   
     axis 0 0 0   XYZ
    dof rx ry rz
    limits (-20.0 45.0)
           (-30.0 30.0)
           (-30.0 30.0)
  end
  begin
     id 15 
     name upperneck
     direction 0.0362743 0.998452 -0.0421753   
     length 3.03688   
     axis 0 0 0   XYZ
    dof rx ry rz
    limits (-20.0 45.0)
           (-30.0 30.0)
           (-30.0 30.0)
  end
  begin
     id 16
     name head
     direction -0.0138164 0.799054 0.6011  
     length 1.47017  
     axis 0 0 0   XYZ
    dof rx ry rz
    limits (-20.0 45.0)
           (-30.0 30.0)
           (-30.0 30.0)
  end
  begin
     id 17 
     name lclavicle
     direction 0.925636 0.378361 -0.006363  
     length 3.33831  
     axis 0 0 0   XYZ
    dof ry rz
    limits (-20.0 10.0)
           (0.0 20.0)
  end
  begin
     id 18 
     name lhumerus
     direction 1 -4.48983e-011 -5.50319e-028   
     length 4.79344   
     axis -180 -30 -90   XYZ
    dof rx ry rz
    limits (-60.0 90.0)
           (-90.0 90.0)
           (-90.0 90.0)
  end
  begin
     id 19
     name lradius
     direction 1 -4.48905e-011 9.20478e-027   
     length 2.94221   
     axis -180 -30 -90   XYZ
    dof rx
    limits (-10.0 170.0)
  end
  begin
     id 20
     name lwrist
     direction 1 -4.4898e-011 2.08228e-026   
     length 1.4711   
     axis -1.38353e-014 90 90   XYZ
    dof ry
    limits (-180.0 0.0)
 end
  begin
     id 21 
     name lhand
     direction 1 -4.48957e-011 4.16456e-026   
     length 0.889984   
     axis -2.65735e-014 90 90   XYZ
    dof rx rz
    limits (-90.0 90.0)
           (-45.0 45.0)
  end
  begin
     id 22 
     name lfingers
     direction 1 -4.49044e-011 8.32913e-026   
     length 0.717528   
     axis -5.3147e-014 90 90   XYZ
    dof rx
    limits (0.0 90.0)
  end
  begin
     id 23
     name lthumb
     direction 0.707107 -6.35171e-011 0.707107   
     length 1.03023   
     axis -90 45 2.85299e-015   XYZ
    dof rx rz
    limits (-45.0 45.0)
           (-45.0 45.0)
  end
  begin
     id 24 
     name rclavicle
     direction -0.892514 0.445149 0.0725343   
     length 3.17271  
     axis 0 0 0   XYZ 
    dof ry rz
    limits (-10.0 20.0)
           (-20.0 0.0)
  end
  begin
     id 25 
     name rhumerus
     direction -1 -4.48952e-011 5.59695e-028  
     length 5.4863   
     axis -180 30 90   XYZ
    dof rx ry rz
    limits (-90.0 60.0)
           (-90.0 90.0)
           (-90.0 90.0)
  end
  begin
     id 26 
     name rradius
     direction -1 -4.48963e-011 1.14146e-026   
     length 3.17201   
     axis -180 30 90   XYZ
    dof rx
    limits (-10.0 170.0)
  end
  begin
     id 27 
     name rwrist
     direction -1 -4.49046e-011 2.08228e-026   
     length 1.58601   
     axis -1.38353e-014 -90 -90   XYZ
    dof ry
    limits (-180.0 0.0)
  end
  begin
     id 28
     name rhand
     direction -1 -4.48815e-011 4.16456e-026   
     length 0.874513   
     axis -2.65735e-014 -90 -90   XYZ
    dof rx rz
    limits (-90.0 90.0)
           (-45.0 45.0)
  end
  begin
     id 29
     name rfingers
     direction -1 -4.48918e-011 8.32913e-026   
     length 0.705055   
     axis -5.3147e-014 -90 -90   XYZ
    dof rx
    limits (0.0 90.0)
  end
  begin
     id 30
     name rthumb
     direction -0.707107 -6.34858e-011 0.707107   
     length 1.01232   
     axis -90 -45 -2.85299e-015   XYZ
    dof rx rz
    limits (-45.0 45.0)
           (-45.0 45.0)
  end
:hierarchy
  begin
    root lhipjoint rhipjoint lowerback
    lhipjoint lfemur
    lfemur ltibia
    ltibia lfoot
    lfoot ltoes
    rhipjoint rfemur
    rfemur rtibia
    rtibia rfoot
    rfoot rtoes
    lowerback upperback
    upperback thorax
    thorax lowerneck lclavicle rclavicle
    lowerneck upperneck
    upperneck head
    lclavicle lhumerus
    lhumerus lradius
    lradius lwrist
    lwrist lhand lthumb
    lhand lfingers
    rclavicle rhumerus
    rhumerus rradius
    rradius rwrist
    rwrist rhand rthumb
    rhand rfingers
  end

#!OML:ASF F:\VICON\USERDATA\INSTALL\rory3\rory3.ASF
:FULLY-SPECIFIED
:DEGREES
389
root 3.26175 18.4942 -0.692375 19.1874 87.7847 6.5085
lowerback -12.1849 -0.849837 -1.83498
upperback -5.82805 -0.708096 1.74747
thorax 0.779237 -0.189926 2.76249
lowerneck -19.0687 -12.0726 4.6019
upperneck 2.70073 33.3266 2.38631
head 25.7718 30.975 180.607
rclavicle -6.75868e-015 6.75868e-015
rhumerus -8.70237 14.6104 -73.3597
rradius 115.522
rwrist 1.85088
rhand -31.2939 -0.244559
rfingers 7.12502
rthumb -4.56693 -30.1753
lclavicle -6.75868e-015 6.75868e-015
lhumerus -12.7938 -17.6921 81.5365
lradius 108.043
lwrist 11.4201
lhand -38.7987 -13.229
lfingers 7.12502
lthumb -11.8096 16.418
rfemur -12.889 17.2858 17.2812
rtibia 13.5099
rfoot -18.5691 -17.7789
rtoes -13.7543
lfemur -11.7643 -3.59052 -22.9753
ltibia 14.5029
lfoot -3.42856 3.569
ltoes -9.93966
390
root 3.2639 18.4927 -0.691118 18.8905 87.7943 6.18793
lowerback -12.2274 -0.843876 -1.88442
upperback -5.80124 -0.695838 1.78402
thorax 0.830188 -0.183674 2.82996
lowerneck -19.2327 -12.0384 4.62389
upperneck 2.66682 33.4023 2.37496
head 25.8185 31.0326 180.605
rclavicle 1.83876e-015 4.77083e-015
rhumerus -8.72283 14.5296 -73.2307
rradius 115.595
rwrist 1.68637
rhand -31.2822 -0.220163
rfingers 7.12502
rthumb -4.55562 -30.1512
lclavicle 1.83876e-015 4.77083e-015
lhumerus -12.7265 -17.6912 81.5819
lradius 108.108
lwrist 11.4748
lhand -38.7967 -13.2608
lfingers 7.12502
lthumb -11.8076 16.3863
rfemur -12.9189 17.2337 17.2947
rtibia 13.5305
rfoot -18.5605 -17.7154
rtoes -13.8965
lfemur -11.7937 -3.59111 -22.9635
ltibia 14.5121
lfoot -3.45016 3.58212
ltoes -9.98681
391
root 3.26528 18.4919 -0.690046 19.7568 87.7952 7.05684
lowerback -12.1673 -0.831019 -1.95583
upperback -5.82726 -0.671071 1.78954
thorax 0.76968 -0.168513 2.87957
lowerneck -19.324 -12.0274 4.65303
upperneck 2.66627 33.5035 2.38498
head 25.8833 31.131 180.611
rclavicle 1.68967e-015 3.97569e-016
rhumerus -8.8631 14.4603 -73.0927
rradius 115.671
rwrist 1.6021
rhand -31.3287 -0.318599
rfingers 7.12502
rthumb -4.60052 -30.2486
lclavicle 1.68967e-015 3.97569e-016
lhumerus -12.7769 -17.7176 81.6273
lradius 108.223
lwrist 11.5848
lhand -38.6836 -13.3423
lfingers 7.12502
lthumb -11.6985 16.3111
rfemur -12.9358 17.3336 17.2524
rtibia 13.5826
rfoot -18.6102 -17.8318
rtoes -14.1151
lfemur -11.7699 -3.63147 -22.9935
ltibia 14.4598
lfoot -3.4828 3.5398
ltoes -9.97915
392
root 3.26662 18.4929 -0.689115 20.2729 87.8061 7.54684
lowerback -12.1417 -0.814193 -1.9844
upperback -5.84154 -0.645111 1.76388
thorax 0.739257 -0.154589 2.87235
lowerneck -19.4501 -12.0314 4.76607
upperneck 2.65285 33.5343 2.40854
head 25.9382 31.164 180.625
rclavicle 2.5345e-015 -2.70347e-014
rhumerus -9.00161 14.327 -73.0455
rradius 115.777
rwrist 1.57113
rhand -31.4001 -0.429664
rfingers 7.12502
rthumb -4.66949 -30.3582
lclavicle 2.5345e-015 -2.70347e-014
lhumerus -12.7667 -17.8134 81.5687
lradius 108.337
lwrist 11.6769
lhand -38.6125 -13.3079
lfingers 7.12502
lthumb -11.63 16.3494
rfemur -12.9705 17.4276 17.2169
rtibia 13.602
rfoot -18.6544 -17.9107
rtoes -14.0771
lfemur -11.7628 -3.68571 -22.9967
ltibia 14.3816
lfoot -3.45689 3.45903
ltoes -9.93853
393
root 3.26821 18.4949 -0.689177 21.8412 87.8052 9.09248
lowerback -12.1656 -0.80991 -2.05913
upperback -5.79344 -0.63351 1.74194
thorax 0.802041 -0.150293 2.89305
lowerneck -19.6798 -12.007 4.89011
upperneck 2.60448 33.5775 2.41104
head 26.0107 31.2203 180.67
rclavicle -3.3048e-015 -7.95139e-016
rhumerus -8.97464 14.207 -72.9565
rradius 115.826
rwrist 1.43658
rhand -31.3907 -0.517236
rfingers 7.12502
rthumb -4.66044 -30.446
lclavicle -3.3048e-015 -7.95139e-016
lhumerus -12.6086 -17.8853 81.4828
lradius 108.354
lwrist 11.6915
lhand -38.6582 -13.1846
lfingers 7.12502
lthumb -11.6741 16.4701
rfemur -13.002 17.3971 17.1481
rtibia 13.6332
rfoot -18.7024 -17.882
rtoes -13.9565
lfemur -11.7518 -3.7591 -23.0518
ltibia 14.3241
lfoot -3.3572 3.41114
ltoes -9.95866
394
root 3.2688 18.4957 -0.688961 21.034 87.851 8.28587
lowerback -12.1356 -0.794769 -2.04783
upperback -5.77045 -0.616884 1.75776
thorax 0.808826 -0.142938 2.90531
lowerneck -19.864 -11.982 4.96747
upperneck 2.58375 33.6994 2.42119
head 26.1101 31.3657 180.706
rclavicle -1.0312e-014 -8.74653e-015
rhumerus -8.94619 14.0925 -72.8351
rradius 115.81
rwrist 1.29366
rhand -31.3506 -0.613752
rfingers 7.12502
rthumb -4.6217 -30.5433
lclavicle -1.0312e-014 -8.74653e-015
lhumerus -12.5568 -17.947 81.4746
lradius 108.395
lwrist 11.6487
lhand -38.6951 -13.1105
lfingers 7.12502
lthumb -11.7096 16.5422
rfemur -12.9982 17.3043 17.2136
rtibia 13.6327
rfoot -18.6593 -17.8524
rtoes -13.9275
lfemur -11.7558 -3.84486 -22.9988
ltibia 14.3382
lfoot -3.29676 3.41474
ltoes -9.97665
395
root 3.26737 18.4935 -0.688776 20.5605 87.8758 7.81155
lowerback -12.1047 -0.799257 -2.08837
upperback -5.75039 -0.620969 1.79207
thorax 0.813968 -0.14471 2.96359
lowerneck -20.0187 -11.9351 5.04717
upperneck 2.57934 33.8649 2.44051
head 26.2084 31.4927 180.715
rclavicle 4.69629e-015 1.11319e-014
rhumerus -8.92534 14.0651 -72.7189
rradius 115.799
rwrist 1.15807
rhand -31.4764 -0.681169
rfingers 7.12502
rthumb -4.74317 -30.6081
lclavicle 4.69629e-015 1.11319e-014
lhumerus -12.5485 -17.9489 81.4794
lradius 108.46
lwrist 11.61
lhand -38.6999 -13.0583
lfingers 7.12502
lthumb -11.7142 16.5941
rfemur -12.9935 17.2339 17.2542
rtibia 13.6069
rfoot -18.5615 -17.8501
rtoes -14.274
lfemur -11.7869 -3.74764 -22.9815
ltibia 14.378
lfoot -3.413 3.4937
ltoes -9.89328
396
root 3.26714 18.4922 -0.688187 19.3805 87.8785 6.64153
lowerback -12.0815 -0.787077 -2.09254
upperback -5.71393 -0.607429 1.80945
thorax 0.838765 -0.139394 2.98579
lowerneck -20.1898 -11.9075 5.14562
upperneck 2.55526 33.9491 2.45207
head 26.2893 31.5926 180.753
rclavicle 8.54774e-015 -1.90833e-014
rhumerus -8.88103 13.9727 -72.6568
rradius 115.792
rwrist 1.0202
rhand -31.5526 -0.645917
rfingers 7.12502
rthumb -4.81677 -30.5712
lclavicle 8.54774e-015 -1.90833e-014
lhumerus -12.4705 -17.9703 81.4056
lradius 108.466
lwrist 11.5932
lhand -38.717 -13.0429
lfingers 7.12502
lthumb -11.7307 16.6087
rfemur -12.9541 17.3327 17.2957
rtibia 13.5533
rfoot -18.5428 -17.8899
rtoes -14.1468
lfemur -11.8063 -3.67623 -22.9327
ltibia 14.4388
lfoot -3.46178 3.57412
ltoes -9.86987
397
root 3.26798 18.4928 -0.686768 18.9564 87.8857 6.21333
lowerback -12.0602 -0.770905 -2.08867
upperback -5.70955 -0.587163 1.80956
thorax 0.830467 -0.129435 2.98632
lowerneck -20.3138 -11.8902 5.18425
upperneck 2.54483 34.0579 2.45864
head 26.3802 31.7722 180.806
rclavicle -1.02623e-014 2.06736e-014
rhumerus -8.89972 13.8803 -72.5728
rradius 115.773
rwrist 0.838126
rhand -31.5686 -0.512411
rfingers 7.12502
rthumb -4.83221 -30.4373
lclavicle -1.02623e-014 2.06736e-014
lhumerus -12.4337 -18.0304 81.3287
lradius 108.468
lwrist 11.6665
lhand -38.695 -13.0779
lfingers 7.12502
lthumb -11.7096 16.5749
rfemur -12.9599 17.5401 17.2944
rtibia 13.5692
rfoot -18.6398 -18.0395
rtoes -13.8382
lfemur -11.8226 -3.68434 -22.904
ltibia 14.4607
lfoot -3.47152 3.58767
ltoes -9.90206
